<?xml version="1.0" standalone="no"?>
<!DOCTYPE svg PUBLIC "-//W3C//DTD SVG 20010904//EN"
 "http://www.w3.org/TR/2001/REC-SVG-20010904/DTD/svg10.dtd">
<svg version="1.0" xmlns="http://www.w3.org/2000/svg"
 width="567.000000pt" height="567.000000pt" viewBox="0 0 567.000000 567.000000"
 preserveAspectRatio="xMidYMid meet">
<metadata>
Created by potrace 1.14, written by Peter Selinger 2001-2017
</metadata>
<g transform="translate(0.000000,567.000000) scale(0.100000,-0.100000)"
fill="#000000" stroke="none">
<path d="M2639 5666 c-2 -2 -35 -6 -74 -10 -174 -16 -237 -27 -417 -72 -132
-34 -311 -90 -373 -119 -16 -7 -52 -23 -80 -35 -209 -92 -450 -236 -614 -368
-137 -109 -273 -239 -384 -367 -33 -38 -64 -71 -69 -73 -4 -2 -8 -8 -8 -13 0
-6 -9 -19 -20 -31 -27 -29 -162 -224 -186 -268 -10 -19 -24 -42 -31 -50 -23
-30 -167 -327 -164 -338 1 -1 -5 -15 -13 -30 -52 -101 -146 -440 -172 -617 -3
-22 -7 -51 -10 -65 -19 -118 -26 -512 -11 -655 9 -77 24 -189 31 -220 2 -11
12 -56 21 -100 9 -44 18 -88 20 -98 2 -10 9 -32 15 -50 5 -18 22 -70 36 -117
54 -173 152 -394 243 -548 17 -29 31 -55 31 -58 0 -9 64 -99 73 -102 4 -2 7
-9 7 -16 0 -7 8 -21 17 -32 10 -11 34 -42 53 -69 34 -49 62 -84 87 -111 7 -7
13 -15 13 -17 0 -12 232 -249 306 -313 98 -86 172 -144 182 -144 6 0 12 -3 14
-8 5 -12 105 -82 117 -82 6 0 11 -3 11 -7 0 -5 23 -21 51 -38 28 -16 68 -40
88 -51 77 -46 298 -152 376 -180 88 -33 211 -75 230 -79 11 -2 45 -11 75 -20
30 -9 62 -17 70 -19 8 -1 26 -5 40 -9 14 -4 39 -9 55 -12 17 -3 55 -9 85 -15
148 -26 267 -35 480 -35 168 0 342 9 380 20 8 3 31 7 50 9 72 10 169 30 294
61 170 42 571 203 598 240 5 7 8 7 8 0 0 -7 3 -7 8 0 4 6 27 21 52 34 95 50
120 65 120 73 0 4 4 8 10 8 9 0 121 73 146 95 7 6 24 19 40 30 163 116 402
354 541 540 29 39 56 75 61 80 15 19 107 160 111 170 2 6 15 27 28 48 34 54
139 266 163 329 11 29 25 62 30 73 19 43 59 165 54 165 -4 0 -2 6 4 13 18 21
83 297 98 410 2 15 6 39 9 55 13 73 20 205 20 382 0 175 -10 365 -20 380 -2 4
-7 29 -10 56 -4 27 -8 56 -10 64 -2 8 -7 29 -10 45 -25 144 -91 365 -156 522
-72 174 -225 461 -251 471 -4 2 -8 8 -8 14 0 10 -127 188 -172 240 -13 15 -39
46 -58 69 -47 56 -208 216 -272 270 -28 24 -56 49 -62 54 -6 6 -38 30 -71 55
-33 25 -62 47 -65 50 -16 18 -258 170 -270 170 -5 0 -10 3 -12 8 -4 10 -170
92 -185 92 -7 0 -13 5 -13 10 0 6 -6 10 -14 10 -8 0 -27 7 -43 14 -24 13 -43
21 -73 31 -3 1 -18 7 -35 14 -111 46 -315 106 -440 130 -136 27 -145 28 -206
36 -30 3 -67 9 -84 11 -36 6 -481 15 -486 10z"/>
</g>
</svg>
